<?xml version="1.0"?>
<svg xmlns="http://www.w3.org/2000/svg" xmlns:xlink="http://www.w3.org/1999/xlink" xmlns:svgjs="http://svgjs.com/svgjs" version="1.1" width="512" height="512" x="0" y="0" viewBox="0 0 512 512" style="enable-background:new 0 0 512 512" xml:space="preserve" class=""><g>
<g xmlns="http://www.w3.org/2000/svg">
	<g>
		<path d="M273.066,341.322h-34.132c-4.71,0-8.533,3.823-8.533,8.533v52.342c0,8.781,7.142,15.923,15.923,15.923h19.353    c8.78,0,15.923-7.142,15.923-15.923v-52.342C281.599,345.145,277.776,341.322,273.066,341.322z M264.533,401.053h-17.066v-42.665    h17.066V401.053z" fill="#ffffff" data-original="#000000" style="" class=""/>
	</g>
</g>
<g xmlns="http://www.w3.org/2000/svg">
	<g>
		<path d="M349.838,307.19H162.154c-9.42,0-17.083,7.663-17.083,17.083v43.117c0,13.858,11.272,25.13,25.13,25.13h68.734    c4.71,0,8.533-3.823,8.533-8.533v-25.599h17.066v25.599c0,4.71,3.823,8.533,8.533,8.533H341.8c13.858,0,25.13-11.272,25.13-25.13    v-43.117C366.93,314.852,359.267,307.19,349.838,307.19z M341.8,375.454h-60.201v-25.599c0-4.71-3.823-8.533-8.533-8.533h-34.132    c-4.71,0-8.533,3.823-8.533,8.533v25.599H170.2c-4.446,0-8.064-3.618-8.064-8.064l0.017-43.135h187.693l0.017,43.135    C349.864,371.836,346.246,375.454,341.8,375.454z" fill="#ffffff" data-original="#000000" style="" class=""/>
	</g>
</g>
<g xmlns="http://www.w3.org/2000/svg">
	<g>
		<path d="M341.331,375.454h-68.264c-4.71,0-8.533,3.823-8.533,8.533v17.066h-17.066v-17.066c0-4.71-3.823-8.533-8.533-8.533H170.67    c-4.71,0-8.533,3.823-8.533,8.533v59.748c0,4.71,3.823,8.533,8.533,8.533h170.661c4.71,0,8.533-3.814,8.533-8.533v-59.748    C349.864,379.277,346.041,375.454,341.331,375.454z M332.797,435.203H179.203V392.52h51.198v9.676    c0,8.781,7.142,15.923,15.923,15.923h19.353c8.78,0,15.923-7.142,15.923-15.923v-9.676h51.198V435.203z" fill="#ffffff" data-original="#000000" style="" class=""/>
	</g>
</g>
<g xmlns="http://www.w3.org/2000/svg">
	<g>
		<path d="M290.132,341.322h-68.264c-4.71,0-8.533,3.823-8.533,8.533c0,4.71,3.823,8.533,8.533,8.533h68.264    c4.71,0,8.533-3.823,8.533-8.533C298.665,345.145,294.842,341.322,290.132,341.322z" fill="#ffffff" data-original="#000000" style="" class=""/>
	</g>
</g>
<g xmlns="http://www.w3.org/2000/svg">
	<g>
		<path d="M279.688,0h-47.375c-15.172,0-27.511,11.494-27.511,25.625v31.171c0,2.637,1.22,5.128,3.302,6.75    c1.519,1.169,3.362,1.783,5.231,1.783c0.708,0,1.425-0.085,2.125-0.273c27.383-7.057,53.664-7.065,81.072,0    c2.56,0.674,5.282,0.102,7.364-1.519c2.082-1.621,3.302-4.113,3.302-6.75V25.625C307.198,11.494,294.859,0,279.688,0z     M290.132,46.096c-23.022-4.565-45.251-4.557-68.264,0V25.625c0-4.719,4.685-8.559,10.444-8.559h47.375    c5.76,0,10.444,3.84,10.444,8.559V46.096z" fill="#ffffff" data-original="#000000" style="" class=""/>
	</g>
</g>
<g xmlns="http://www.w3.org/2000/svg">
	<g>
		<path d="M431.141,41.07c-1.587-4.062-5.965-6.263-10.18-5.137c-20.693,5.615-40.762,29.507-52.376,62.368    c-1.101,3.106-0.316,6.562,2.014,8.883c30.651,30.617,47.529,71.345,47.529,114.676c0,4.71,3.823,8.533,8.533,8.533    c4.71,0,8.533-3.823,8.533-8.533V60.269C435.185,59.356,435.023,51.002,431.141,41.07z M418.128,145.318    c-7.944-16.793-18.551-32.383-31.615-46.241c7.893-19.925,19.515-35.89,31.12-43.143c0.452,2.671,0.495,4.395,0.495,4.395V145.318    z" fill="#ffffff" data-original="#000000" style="" class=""/>
	</g>
</g>
<g xmlns="http://www.w3.org/2000/svg">
	<g>
		<path d="M394.978,9.506c-24.686-6.246-51.983,17.117-67.906,58.076c-1.579,4.053,0.145,8.635,3.993,10.649    c53.698,28.133,87.063,83.172,87.063,143.628c0,4.71,3.823,8.533,8.533,8.533c4.71,0,8.533-3.823,8.533-8.533V60.32    C435.194,46.249,426.789,17.527,394.978,9.506z M418.128,145.446c-15.274-32.391-40.199-59.936-72.275-78.538    c12.271-27.135,30.949-44.363,44.952-40.848c26.708,6.724,27.314,33.185,27.323,34.26V145.446z" fill="#ffffff" data-original="#000000" style="" class=""/>
	</g>
</g>
<g xmlns="http://www.w3.org/2000/svg">
	<g>
		<path d="M184.928,67.59c-15.923-40.967-43.211-64.271-67.906-58.076C85.211,17.527,76.806,46.249,76.806,60.32v161.539    c0,4.71,3.823,8.533,8.533,8.533c4.71,0,8.533-3.823,8.533-8.533c0-60.457,33.364-115.495,87.063-143.62    C184.783,76.226,186.507,71.643,184.928,67.59z M93.872,145.446V60.371c0.009-1.126,0.614-27.579,27.323-34.311    c1.22-0.307,2.475-0.461,3.763-0.461c13.482,0,29.985,16.537,41.189,41.308C134.071,85.51,109.146,113.063,93.872,145.446z" fill="#ffffff" data-original="#000000" style="" class=""/>
	</g>
</g>
<g xmlns="http://www.w3.org/2000/svg">
	<g>
		<path d="M143.415,98.301c-11.622-32.861-31.692-56.762-52.384-62.368c-4.198-1.118-8.593,1.075-10.18,5.128    c-3.874,9.932-4.036,18.286-4.045,19.259v161.539c0,4.71,3.823,8.533,8.533,8.533c4.71,0,8.533-3.823,8.533-8.533    c0-43.331,16.878-84.059,47.529-114.676C143.731,104.863,144.507,101.407,143.415,98.301z M93.872,145.318V60.38    c0-0.034,0.034-1.766,0.486-4.454c11.605,7.253,23.235,23.227,31.129,43.152C112.423,112.935,101.816,128.525,93.872,145.318z" fill="#ffffff" data-original="#000000" style="" class=""/>
	</g>
</g>
<g xmlns="http://www.w3.org/2000/svg">
	<g>
		<path d="M437.31,332.789h-78.914c-4.71,0-8.533,3.823-8.533,8.533v26.068c0,4.446-3.618,8.064-8.533,8.064    c-4.71,0-8.533,3.823-8.533,8.533v51.215H179.203v-51.215c0-4.71-4.292-8.533-9.002-8.533c-4.446,0-8.064-3.618-8.064-8.064    v-26.068c0-4.71-3.823-8.533-8.533-8.533H74.69c-12.945,0-23.483,10.538-23.483,23.483v99.734    c0,30.881,25.121,55.994,56.002,55.994h297.582c30.881,0,56.002-25.113,56.002-55.994v-99.734    C460.793,343.327,450.255,332.789,437.31,332.789z M443.736,456.006c0,21.461-17.467,38.928-38.936,38.928h-297.59    c-21.469,0-38.936-17.459-38.936-38.928v-99.734c0-3.541,2.884-6.417,6.417-6.417h70.381v17.544    c0,10.948,7.04,20.292,17.066,23.722v52.623c0,4.71,3.823,8.533,8.533,8.533h170.661c4.71,0,8.533-3.823,8.533-8.533v-52.547    c9.915-3.371,17.066-12.774,17.066-23.807v-17.535h70.381c3.533,0,6.417,2.876,6.425,6.417V456.006z" fill="#ffffff" data-original="#000000" style="" class=""/>
	</g>
</g>
<g xmlns="http://www.w3.org/2000/svg">
	<g>
		<path d="M256,42.665c-98.804,0-179.194,80.381-179.194,179.194v119.463c0,4.71,3.823,8.533,8.533,8.533h68.264    c4.71,0,8.533-3.823,8.533-8.533l0.017-17.066l187.71,0.017v17.049c0,4.71,3.823,8.533,8.533,8.533h68.264    c4.71,0,8.533-3.823,8.533-8.533V221.859C435.194,123.047,354.804,42.665,256,42.665z M418.128,332.789H366.93v-8.516    c0-9.421-7.663-17.083-17.092-17.083H162.154c-9.42,0-17.083,7.663-17.083,17.083v8.516H93.872v-110.93    c0-89.401,72.727-162.128,162.128-162.128s162.128,72.727,162.128,162.128V332.789z" fill="#ffffff" data-original="#000000" style="" class=""/>
	</g>
</g>
<g xmlns="http://www.w3.org/2000/svg">
	<g>
		<path d="M338.83,181.694l-76.797-76.797c-3.328-3.336-8.738-3.336-12.066,0l-76.797,76.797c-3.336,3.336-3.336,8.729,0,12.066    l76.797,76.797c1.664,1.664,3.848,2.5,6.033,2.5c2.184,0,4.369-0.836,6.033-2.5l76.797-76.797    C342.167,190.424,342.167,185.031,338.83,181.694z M256,252.459l-64.732-64.732L256,122.995l64.732,64.732L256,252.459z" fill="#ffffff" data-original="#000000" style="" class=""/>
	</g>
</g>
<g xmlns="http://www.w3.org/2000/svg">
	<g>
		<path d="M238.934,162.128c-4.71,0-8.533,3.823-8.533,8.533v34.132c0,4.71,3.823,8.533,8.533,8.533s8.533-3.823,8.533-8.533    v-34.132C247.467,165.951,243.644,162.128,238.934,162.128z" fill="#ffffff" data-original="#000000" style="" class=""/>
	</g>
</g>
<g xmlns="http://www.w3.org/2000/svg">
	<g>
		<path d="M273.066,162.128c-4.71,0-8.533,3.823-8.533,8.533v34.132c0,4.71,3.823,8.533,8.533,8.533s8.533-3.823,8.533-8.533    v-34.132C281.599,165.951,277.776,162.128,273.066,162.128z" fill="#ffffff" data-original="#000000" style="" class=""/>
	</g>
</g>
<g xmlns="http://www.w3.org/2000/svg">
</g>
<g xmlns="http://www.w3.org/2000/svg">
</g>
<g xmlns="http://www.w3.org/2000/svg">
</g>
<g xmlns="http://www.w3.org/2000/svg">
</g>
<g xmlns="http://www.w3.org/2000/svg">
</g>
<g xmlns="http://www.w3.org/2000/svg">
</g>
<g xmlns="http://www.w3.org/2000/svg">
</g>
<g xmlns="http://www.w3.org/2000/svg">
</g>
<g xmlns="http://www.w3.org/2000/svg">
</g>
<g xmlns="http://www.w3.org/2000/svg">
</g>
<g xmlns="http://www.w3.org/2000/svg">
</g>
<g xmlns="http://www.w3.org/2000/svg">
</g>
<g xmlns="http://www.w3.org/2000/svg">
</g>
<g xmlns="http://www.w3.org/2000/svg">
</g>
<g xmlns="http://www.w3.org/2000/svg">
</g>
</g></svg>
